<svg width="24" height="24" viewBox="0 0 24 24" fill="none" xmlns="http://www.w3.org/2000/svg">
<circle cx="3.40426" cy="3.40426" r="3.40426" transform="matrix(-1 0 0 1 15.617 5)" stroke="#8B8A8A" stroke-width="1.5"/>
<path d="M6.00001 17.3487C6.00001 16.6164 6.46031 15.9633 7.14987 15.717V15.717C10.2588 14.6067 13.6561 14.6067 16.765 15.717V15.717C17.4546 15.9633 17.9149 16.6164 17.9149 17.3487V18.4682C17.9149 19.4788 17.0198 20.2551 16.0194 20.1122L15.6859 20.0645C13.2128 19.7113 10.7021 19.7113 8.22906 20.0645L7.8955 20.1122C6.89508 20.2551 6.00001 19.4788 6.00001 18.4682V17.3487Z" stroke="#8B8A8A" stroke-width="1.5"/>
<path d="M17.3192 11.9026C18.7964 11.9026 19.9939 10.7051 19.9939 9.22787C19.9939 7.75064 18.7964 6.5531 17.3192 6.5531" stroke="#8B8A8A" stroke-width="1.5" stroke-linecap="round"/>
<path d="M20.2486 18.0051L20.5107 18.0425C21.2967 18.1548 22 17.5448 22 16.7508V15.8711C22 15.2958 21.6383 14.7826 21.0965 14.5891C20.5561 14.3961 20.0045 14.2458 19.4468 14.1382" stroke="#8B8A8A" stroke-width="1.5" stroke-linecap="round"/>
<path d="M6.68086 11.9026C5.20362 11.9026 4.00608 10.7051 4.00608 9.22787C4.00608 7.75064 5.20362 6.5531 6.68086 6.5531" stroke="#8B8A8A" stroke-width="1.5" stroke-linecap="round"/>
<path d="M3.7514 18.0051L3.48932 18.0425C2.70327 18.1548 2 17.5448 2 16.7508V15.8711C2 15.2958 2.36167 14.7826 2.90347 14.5891C3.44392 14.3961 3.99546 14.2458 4.55319 14.1382" stroke="#8B8A8A" stroke-width="1.5" stroke-linecap="round"/>
</svg>
